Format : AVI
Format/Info : Audio Video Interleave
File size : 745 MiB
Duration : 1h 42mn
Overall bit rate : 1 019 Kbps
Writing library : VirtualDub build 32842/release

Video
ID : 0
Format : MPEG-4 Visual
Format profile : Advanced Simple@L4
Format settings, BVOP : 2
Format settings, QPel : No
Format settings, GMC : No warppoints
Format settings, Matrix : Default (H.263)
Muxing mode : Packed bitstream
Codec ID : XVID
Codec ID/Hint : XviD
Duration : 1h 42mn
Bit rate : 882 Kbps
Width : 720 pixels
Height : 306 pixels
Display aspect ratio : 2.35:1
Frame rate : 25.000 fps
Color space : YUV
Chroma subsampling : 4:2:0
Bit depth : 8 bits
Scan type : Progressive
Compression mode : Lossy
Bits/(Pixel*Frame) : 0.160
Stream size : 644 MiB (86%)
Writing library : XviD 64

Audio
ID : 1
Format : AC-3
Format/Info : Audio Coding 3
Mode extension : CM (complete main)
Codec ID : 2000
Duration : 1h 42mn
Bit rate mode : Constant
Bit rate : 128 Kbps
Channel(s) : 2 channels
Channel positions : Front: L R
Sampling rate : 48.0 KHz
Bit depth : 16 bits
Compression mode : Lossy
Stream size : 93.6 MiB (13%)
Alignment : Aligned on interleaves
Interleave, duration : 40 ms (1.00 video frame)
Interleave, preload duration : 512 ms











 
http://www.imdb.com/title/tt1687901/



Ratings: 7.0/10 from 758 users
Reviews: 16 user | 38 critic

Director: Nick Murphy
Writers: Stephen Volk, Nick Murphy
Stars: Rebecca Hall, Dominic West and Imelda Staunton

Screens
 
http://www.shotpix.com/images/81601658395116283253.png
 
http://www.shotpix.com/images/83860200609705147482.png
 
http://www.shotpix.com/images/84376442219309925712.png
 
http://www.shotpix.com/images/12683765467808363220.png
 
http://www.shotpix.com/images/61924121750238912857.png
 
http://www.shotpix.com/images/04057217232002519022.png




Source Used


720P 26K .................Thanks


so check out the sample provided ....Filtered the vid , Audio encoded to AC3


Enjoy





Greetz to Flawl3ss,DDR,Sam,absurdity,BHRG,iLLUMiNATi,SafCuk009,MiSTERE,Feel-free,3Li,DTRG